# Blender 3.2.2
# www.blender.org
mtllib MazeTest.mtl
o Plane
v -9.701334 0.000000 9.618645
v 9.701334 0.000000 9.618645
v -9.701334 0.000000 -9.618645
v 9.701334 0.000000 -9.618645
vn -0.0000 1.0000 -0.0000
vt 0.000000 0.000000
vt 1.000000 0.000000
vt 0.000000 1.000000
vt 1.000000 1.000000
s 0
usemtl wall.001
f 2/2/1 3/3/1 1/1/1
f 2/2/1 4/4/1 3/3/1
o Cube
v -9.631643 -0.010657 -9.190651
v -9.631643 1.989343 -9.190651
v -9.645630 -0.010657 -9.551631
v -9.645630 1.989343 -9.551631
v 9.562692 -0.010657 -9.190651
v 9.562692 1.989343 -9.190651
v 9.562692 1.989343 -9.551631
v -9.645630 -0.010657 9.618977
v -9.645630 1.989343 9.618977
v -9.631643 -0.010657 9.257997
v -9.631643 1.989343 9.257997
v 9.886223 -0.010657 9.618977
v 9.886223 1.989343 9.618977
v 9.886223 -0.010657 9.257997
v 9.886223 1.989343 9.257997
v -9.631643 -0.010657 -9.190651
v -9.631643 1.989343 -9.190651
v -9.631643 -0.010657 9.257997
v -9.631643 1.989343 9.257997
v -9.316163 -0.010657 -9.190416
v -9.316163 1.989343 -9.190416
v -9.330150 -0.010657 9.619211
v -9.330150 1.989343 9.619211
v 9.886223 -0.010657 -9.215567
v 9.886223 1.989343 -9.215567
v 9.886223 -0.010657 -9.576547
v 9.886223 1.989343 -9.576547
v 9.484550 -0.010657 9.618977
v 9.484550 1.989343 9.618977
v 9.484550 -0.010657 -9.215567
v 9.484550 1.989343 -9.215567
v 9.439826 -0.010657 -9.576547
v 9.439826 -0.010657 -9.215567
v 9.439826 1.989343 -9.215567
v 9.439826 1.989343 -9.576547
vn -0.0000 -0.0000 1.0000
vn -0.0000 1.0000 -0.0000
vn -0.0000 -1.0000 -0.0000
vn -0.0000 -0.0000 -1.0000
vn 1.0000 -0.0000 0.0007
vn 1.0000 -0.0000 -0.0000
vn -1.0000 -0.0000 -0.0000
vt 0.409588 0.000000
vt 0.614381 0.963163
vt 0.614381 0.963023
vt 0.950384 0.963023
vt 0.307191 0.000000
vt 0.915750 0.000716
vt 0.614381 0.963163
vt 0.614381 0.963023
vt 0.614381 0.963882
vt 0.897268 0.000000
vt 0.614381 0.963882
vt 0.409588 0.982719
vt 0.915750 0.983436
vt 0.307191 0.982719
vt 0.897268 0.983436
vt 0.614381 0.963737
vt 0.860305 0.000000
vt 0.614381 0.963737
vt 0.950384 0.000000
vt 0.204794 0.000000
vt 0.614381 0.963023
vt 0.102397 0.000000
vt 0.878786 0.000716
vt 0.614381 0.963023
vt 0.614381 0.963023
vt 0.860305 0.964299
vt 0.819175 0.964299
vt 0.860305 1.000000
vt 0.614381 0.963023
vt 0.204794 0.999284
vt 0.614381 0.963023
vt 0.878786 1.000000
vt 0.102397 0.999284
vt 0.614381 0.963023
vt 0.614381 0.963023
vt 0.614381 0.963023
vt 0.614381 0.963023
vt 0.614381 0.963023
vt 0.614381 0.000000
vt 0.966537 0.963023
vt 0.716778 0.000000
vt 0.614381 0.963023
vt 0.966537 0.000000
vt 0.716778 0.963023
vt 0.860305 0.000000
vt 0.614381 0.963023
vt 0.966537 0.842030
vt 0.966537 0.842030
vt 0.614381 0.963023
vt 0.819175 0.000000
vt 0.614381 0.963023
vt 0.985018 0.842030
vt 0.985018 0.842030
vt 0.614381 0.963023
vt 0.409587 0.000000
vt 0.839740 0.964299
vt 0.839740 0.964299
vt 0.511984 0.000000
vt 0.409587 0.964299
vt 0.839740 0.000000
vt 0.839740 0.000000
vt 0.511984 0.964299
vt 0.985018 0.819175
vt 0.966537 0.819175
vt 0.966537 0.864884
vt 0.985018 0.864884
s 0
usemtl wall.001
f 10/18/2 5/5/2 9/16/2
f 11/19/3 6/10/3 10/17/3
f 17/32/3 15/27/3 13/21/3
f 13/23/3 25/44/3 6/8/3
f 6/11/4 15/28/4 13/22/4
f 7/13/3 12/20/3 14/25/3
f 19/37/5 14/24/5 15/26/5
f 14/25/3 23/42/3 22/41/3
f 6/12/3 20/39/3 21/40/3
f 25/45/6 26/46/6 24/43/6
f 31/57/3 38/69/3 29/52/3
f 29/54/3 33/61/3 17/31/3
f 17/33/7 31/58/7 29/53/7
f 18/35/7 28/50/7 30/55/7
f 33/62/8 34/63/8 32/59/8
f 16/30/4 34/64/4 28/49/4
f 28/51/4 36/67/4 30/56/4
f 10/18/2 6/9/2 5/5/2
f 11/19/3 8/14/3 6/10/3
f 17/32/3 19/36/3 15/27/3
f 13/23/3 27/47/3 25/44/3
f 6/11/3 8/15/3 15/28/3
f 7/13/4 5/6/4 12/20/4
f 19/37/5 18/34/5 14/24/5
f 14/25/3 15/28/3 23/42/3
f 6/12/3 5/7/3 20/39/3
f 25/45/6 27/48/6 26/46/6
f 31/57/3 39/70/3 38/69/3
f 29/54/3 35/65/3 33/61/3
f 17/33/8 19/38/8 31/58/8
f 18/35/8 16/29/8 28/50/8
f 33/62/8 35/66/8 34/63/8
f 16/30/4 32/60/4 34/64/4
f 28/51/4 37/68/4 36/67/4
